<?xml version="1.0" encoding="utf-8"?>
<!-- Generator: Adobe Illustrator 25.4.1, SVG Export Plug-In . SVG Version: 6.00 Build 0)  -->
<svg version="1.1" id="Layer_1" xmlns="http://www.w3.org/2000/svg" xmlns:xlink="http://www.w3.org/1999/xlink" x="0px" y="0px"
	 viewBox="0 0 1920 1080" style="enable-background:new 0 0 1920 1080;" xml:space="preserve">
<style type="text/css">
	.st0{fill:#FFFFFF;}
</style>
<path class="st0" d="M2445.8-1131.9c-44.7,45.6-86.3,87.7-127.4,130.3c-41.5,42.9-82.4,86.3-126.1,132.1
	c167.6,232.1,335.2,464.1,503.6,697.3c-5.5,0.5-11.9,1.5-18.2,1.5c-118.7,0.1-237.5-0.2-356.2,0.4c-15.1,0.1-23.2-5.1-31.7-17.5
	c-103.5-151.5-207.7-302.4-312.4-454.4c-82.7,87.9-164.1,175.1-246.3,261.6c-63.1,66.3-127,131.9-191,197.3
	c-5.4,5.5-14.2,10.7-21.5,10.8c-129.5,0.6-258.9,0.5-388.4,0.5c-1.3-2.2-2.5-4.4-3.8-6.6c21.4-20.3,43.8-39.7,64-61
	C1319-375.3,1447.8-510.6,1575-647.3c124.7-133.9,247.7-269.3,371.4-404.1c11.5-12.5,25.5-23.5,34.2-37.8
	c23.4-38.5,56.9-46.9,99.8-45.9c115.6,2.7,231.2,1.3,346.9,1.6C2431.8-1133.4,2436.1-1132.7,2445.8-1131.9z"/>
<path class="st0" d="M13.9-1236.5c-10.1,52.4-19.9,103-30.2,156.1c-8.9,0-17.2,0-25.6,0c-100.1-0.2-200.2-0.4-300.3-0.5
	c-41.9,0-84.1,4.5-114.3,35.8c-18.4,19.1-35,44.9-40.8,70.3c-17.2,75.4-29.5,151.9-42.1,228.3c-9.4,57,20.2,93.6,79.2,95.3
	c77.5,2.1,155.2,0.4,232.8,0.7c18.6,0.1,27-11.8,30.5-26.5c8-33.8,14.1-68,21.5-104.6c-61.7,0-121.2,0-184.6,0
	c8.8-52.6,17-102.5,25.3-151.9c118.2,0,234.2,0,352.1,0C9.1-883.1,1.1-834.5-7.3-786c-6.5,37.3-13.7,74.6-20,111.9
	c-17.6,103.3-72.5,163.7-176.1,174.6c-114.7,12.2-230.8,14.8-345.5-3.3c-118-18.6-182.4-108.6-163.7-228.4
	c15.5-99.2,34.2-198.1,56.6-296c29.8-130.3,127.9-206.8,272.8-211.1c129.5-3.8,259.1-1,388.7-1C7.7-1239.1,9.8-1237.8,13.9-1236.5z"
	/>
<path class="st0" d="M815-1237.3c8.7-0.6,14.8-1.3,20.9-1.3c147.4,0.4,294.8,0.6,442.2,1.6c77.8,0.5,145.5,43.2,161.8,111.3
	c9.6,40.1,6.7,84.7,1.7,126.3c-7.6,62.9-28.4,122-73.7,169.6c-34.3,36-76.5,56.6-128,65c33.7,89.1,66.7,176.3,100.6,265.8
	c-13.5,1.6-26.9,4.4-40.4,4.7c-41.1,0.8-82.3,1.3-123.3,0.1c-7.6-0.2-19.3-7.2-21.9-13.9c-52.8-135.4-104.5-271.2-156.4-407
	c-0.2-0.6,0.3-1.5,0.4-1.7c64.4,0,128.6,0.2,192.9-0.1c61.6-0.2,115.4-77.8,91.3-134.6c-5.2-12.3-23.5-26.9-36-27.2
	c-98.4-2.2-196.9-1.2-297.8-1.2c-33.6,195-67.2,389.6-100.6,583.1c-56.5,0-111.2,0-167.4,0C726-745.2,770.5-991.1,815-1237.3z"/>
<path class="st0" d="M736-1238.3c-8.3,53.7-16.1,104.6-24.2,157.4c-79.3,0-157.4,0-236.3,0c-34.3,196.7-68.3,391.5-101.9,584.6
	c-56.7,0-109.9,0-164.7,0c35.8-195.9,71-388.7,106.6-583.7c-83.9,0-165.8,0-251.6,0c6.2-37.1,11.5-71.8,17.9-106.3
	c3.3-17.8,3.2-41.7,14.4-51.1c10.5-8.8,34-2.2,51.8-2.1c187.8,0.4,375.6,0.9,563.3,1.3C718.8-1238.3,726.4-1238.3,736-1238.3z"/>
<path class="st0" d="M1352.7-1488.7c13.2,0,23.7,0,34.3,0c110.9,0.1,221.7,0.6,332.6-0.3c20.1-0.2,33.5,3.7,46.2,21.4
	c73.1,101.8,147.7,202.5,222.7,304.7c-72.4,81.3-144.2,161.7-217.2,243.7C1631.9-1108.7,1493.8-1296.7,1352.7-1488.7z"/>
<path class="st0" d="M2160.1-1311.5c13.4-16.3,23.4-30,35.1-42c4.7-4.8,13.1-8.4,19.8-8.4c146.6,0.3,293.3,1.3,439.9,2.1
	c2.9,0,5.8,0.7,10.4,1.3c-25.4,34.1-52.2,53.3-98.5,51.6c-129.4-4.8-259.1-3-388.6-3.9C2173.6-1310.7,2169.1-1311.1,2160.1-1311.5z"
	/>
<path class="st0" d="M2062.3-1198.2c13.9-15.8,24.9-29.9,37.7-41.9c5.5-5.1,14.9-8.5,22.6-8.5c141-0.2,281.9,0.2,422.9,0.6
	c2.7,0,5.4,1.5,6.1,1.7c-14.4,15.9-28.2,32.1-43.2,47.1c-3.7,3.7-11.3,4.6-17.1,4.6c-139.4-0.3-278.8-0.9-418.2-1.5
	C2070.8-1196.1,2068.7-1196.9,2062.3-1198.2z"/>
<path class="st0" d="M2257.3-1420.6c29.7-26.4,59.5-46.1,95.3-46.5c140.1-1.4,280.2-0.6,425.4-0.6c-27,19.4-40.2,49-79.4,48.6
	c-143.3-1.5-286.7,0-430.1,0.3C2266.3-1418.8,2264.2-1419.5,2257.3-1420.6z"/>
</svg>
